<?xml version="1.0" standalone="no"?>
<!DOCTYPE svg PUBLIC "-//W3C//DTD SVG 20010904//EN"
 "http://www.w3.org/TR/2001/REC-SVG-20010904/DTD/svg10.dtd">
<svg version="1.0" xmlns="http://www.w3.org/2000/svg"
 width="900.000000pt" height="663.000000pt" viewBox="0 0 900.000000 663.000000"
 preserveAspectRatio="xMidYMid meet">
<metadata>
Created by potrace 1.10, written by Peter Selinger 2001-2011
</metadata>
<g transform="translate(0.000000,663.000000) scale(0.100000,-0.100000)"
fill="#000000" stroke="none">
<path d="M3225 5844 c-21 -5 -55 -55 -55 -81 0 -9 -6 -39 -14 -67 -23 -81 -40
-175 -45 -256 l-6 -75 -49 -3 c-69 -4 -87 2 -131 45 -37 36 -54 48 -100 73
-11 6 -33 19 -50 29 -16 11 -48 29 -69 41 -62 34 -157 110 -166 134 -4 11 -17
30 -29 40 -20 18 -25 18 -59 7 -44 -16 -106 -72 -170 -156 -26 -33 -51 -64
-57 -70 -7 -5 -27 -30 -45 -55 -18 -25 -38 -49 -44 -55 -18 -16 -69 -87 -88
-122 -12 -20 -18 -53 -18 -95 0 -34 -5 -81 -11 -103 -5 -22 -14 -67 -18 -100
-5 -33 -10 -67 -12 -75 -6 -22 56 -24 173 -6 54 9 148 16 208 16 108 0 109 0
139 -31 17 -17 31 -38 31 -48 0 -36 -77 -117 -145 -152 -22 -11 -47 -24 -55
-28 -8 -5 -44 -23 -80 -41 -100 -50 -140 -85 -140 -124 0 -37 24 -63 85 -94
52 -26 263 -47 392 -39 l95 6 -6 -62 c-3 -34 -8 -79 -12 -100 -10 -61 13 -102
125 -227 23 -25 41 -48 41 -52 0 -4 6 -13 13 -20 17 -20 33 -46 62 -104 61
-124 99 -144 268 -144 67 1 158 7 202 15 44 8 102 15 128 15 26 0 64 7 84 15
19 8 42 15 50 15 20 0 111 70 156 119 29 32 36 47 31 64 -3 12 -7 22 -8 23 0
0 -20 15 -44 33 -23 18 -48 31 -56 28 -8 -3 -15 -27 -18 -62 -7 -84 -35 -107
-159 -129 -52 -9 -132 -16 -178 -16 -45 0 -129 -7 -187 -16 -110 -17 -134 -13
-134 25 0 10 -7 26 -15 37 -8 10 -15 29 -15 40 0 12 -7 27 -15 34 -8 7 -15 19
-15 27 0 16 -51 86 -108 148 -55 60 -72 97 -72 153 0 47 -3 52 -35 72 -35 22
-40 34 -29 64 16 42 97 -1 199 -108 117 -122 256 -211 284 -183 17 17 13 45
-9 64 -11 10 -20 28 -20 40 0 22 4 23 74 23 67 0 75 2 90 25 15 23 15 25 -6
36 -15 8 -54 10 -128 5 -92 -6 -112 -4 -149 12 -42 19 -103 66 -165 127 -39
39 -158 141 -212 183 -53 41 -123 44 -167 9 l-27 -23 22 -21 c13 -11 34 -23
48 -26 60 -13 116 -31 128 -40 17 -14 15 -44 -4 -51 -23 -9 -141 4 -188 20
-23 9 -82 14 -147 14 -59 0 -110 4 -114 10 -12 19 20 47 74 65 55 19 114 50
142 77 8 7 40 35 72 61 66 56 147 157 147 184 -1 33 -80 108 -167 156 -38 21
-153 23 -209 3 -51 -17 -175 -29 -193 -17 -17 11 -8 130 14 176 7 17 16 37 19
45 4 8 15 29 26 45 11 17 23 37 26 45 11 24 74 100 144 173 36 38 69 75 73 83
15 26 46 14 131 -51 46 -36 87 -65 91 -65 3 0 32 -19 63 -42 69 -52 83 -60
147 -93 28 -14 57 -29 65 -34 75 -40 168 -59 212 -42 28 11 68 71 68 104 0 12
7 44 15 71 8 27 15 72 15 100 0 28 5 69 11 91 6 22 14 60 18 85 12 86 58 62
177 -95 33 -44 64 -87 67 -95 4 -8 18 -33 32 -55 13 -22 24 -50 25 -63 0 -29
54 -139 83 -170 35 -38 75 -55 113 -48 26 5 35 3 43 -13 6 -11 11 -29 11 -40
0 -22 30 -36 60 -26 16 5 20 15 20 46 0 45 19 80 70 127 39 37 76 55 96 48 7
-3 21 -20 31 -38 15 -29 17 -60 16 -248 -1 -164 -5 -227 -17 -265 -9 -27 -16
-64 -16 -82 0 -17 -5 -44 -11 -60 -7 -15 -15 -46 -20 -68 -8 -44 -23 -102 -45
-181 -8 -28 -14 -65 -14 -82 0 -23 -9 -40 -30 -59 -16 -14 -30 -35 -30 -45 0
-10 -9 -37 -20 -58 -30 -59 -61 -53 -111 25 -14 22 -48 73 -74 113 -56 86
-244 279 -295 304 -19 9 -57 26 -85 39 -53 25 -135 101 -135 126 0 8 -16 39
-36 69 -31 47 -40 54 -68 54 -49 0 -76 34 -76 97 0 36 -5 55 -18 66 -26 24
-30 22 -75 -23 -33 -35 -38 -45 -33 -71 3 -16 22 -43 43 -62 81 -70 203 -200
203 -216 0 -6 25 -35 55 -66 45 -45 62 -55 89 -55 18 0 39 -7 46 -15 7 -8 18
-15 24 -15 14 0 152 -141 208 -212 23 -29 44 -55 48 -58 3 -3 28 -34 55 -70
61 -83 112 -130 148 -137 29 -6 79 -66 121 -146 39 -73 50 -91 79 -128 15 -20
27 -40 27 -44 0 -4 13 -24 28 -44 28 -35 76 -131 101 -201 46 -124 51 -374 10
-440 -5 -8 -12 -22 -15 -31 -8 -23 -57 -49 -92 -49 -37 0 -48 -24 -27 -57 36
-54 112 -52 169 5 20 19 36 41 36 47 0 7 7 18 15 25 8 7 15 21 15 32 0 11 6
32 14 46 8 15 19 73 25 130 12 113 0 271 -25 330 -8 18 -14 39 -14 46 0 7 -11
33 -25 57 -13 24 -29 53 -35 64 -6 11 -19 34 -30 50 -11 17 -23 37 -27 45 -7
16 -45 72 -53 80 -3 3 -28 34 -55 70 -49 64 -50 66 -50 136 1 50 6 79 18 97 9
15 17 33 17 41 0 8 8 29 17 48 9 18 21 42 26 53 6 11 14 33 18 50 4 16 12 44
17 60 10 29 27 90 52 185 6 25 15 70 20 102 4 31 11 62 16 69 4 7 11 45 15 83
3 39 12 110 20 158 11 77 11 89 -4 112 -11 16 -17 46 -17 83 0 75 -25 155 -90
283 -37 75 -55 76 -122 4 -164 -177 -148 -164 -203 -164 -45 0 -53 4 -83 38
-39 43 -57 80 -87 174 -15 50 -35 85 -78 136 -56 68 -152 162 -164 162 -4 0
-14 7 -23 15 -16 15 -109 27 -145 19z"/>
<path d="M8048 5727 c-20 -7 -43 -18 -50 -25 -6 -6 -18 -12 -24 -12 -22 0
-139 -124 -163 -172 -27 -58 -25 -88 11 -107 23 -13 30 -13 52 -1 25 13 66 70
66 92 0 12 57 86 85 110 34 29 53 21 102 -42 78 -101 98 -182 67 -272 -10 -29
-24 -60 -31 -69 -7 -8 -13 -21 -13 -27 0 -18 -149 -165 -200 -198 -94 -61
-260 -134 -350 -154 -19 -4 -48 -13 -63 -19 -16 -6 -45 -11 -65 -11 -20 0 -62
-7 -92 -15 -35 -9 -102 -15 -182 -15 -134 0 -131 -1 -263 60 -102 46 -194 79
-255 90 -25 5 -58 14 -75 20 -18 7 -93 12 -185 13 -147 2 -157 0 -200 -23 -49
-27 -155 -127 -170 -163 -6 -12 -19 -35 -30 -52 -10 -16 -51 -93 -90 -170 -93
-182 -114 -218 -167 -287 -38 -50 -168 -161 -213 -181 -8 -4 -28 -16 -45 -26
-16 -11 -64 -36 -105 -56 -41 -20 -87 -43 -102 -51 -17 -9 -52 -14 -95 -13
-74 2 -97 -7 -185 -70 -50 -36 -61 -52 -52 -76 11 -27 55 -17 85 18 l27 32
100 0 c77 1 108 5 138 19 22 11 55 26 74 34 19 8 42 19 50 24 8 4 22 11 30 14
8 3 22 10 30 15 8 5 24 14 35 19 11 6 34 19 50 30 17 11 37 23 45 27 45 20
178 133 218 185 44 55 94 134 108 168 12 31 37 85 46 100 4 8 11 22 14 30 3 8
9 22 14 30 5 8 21 38 35 65 58 111 114 187 159 214 30 19 50 21 177 21 79 0
160 -5 179 -11 19 -6 53 -15 75 -19 49 -10 91 -25 170 -61 33 -15 71 -29 85
-32 14 -3 39 -10 55 -15 59 -20 201 -42 275 -42 71 0 208 19 295 41 22 6 56
14 75 19 59 14 203 72 250 101 8 5 25 13 37 19 56 24 155 100 231 177 45 47
82 88 82 93 0 5 14 29 30 53 17 25 30 51 30 59 0 7 8 25 17 38 26 37 26 269 1
297 -10 11 -18 24 -18 29 0 5 -21 33 -46 62 -62 71 -110 90 -176 69z"/>
<path d="M3402 5427 c-46 -49 -52 -91 -52 -378 0 -230 2 -270 16 -283 23 -24
43 -19 49 12 4 15 10 46 16 69 5 23 9 93 9 155 0 62 7 151 15 198 21 121 20
212 -3 233 -24 22 -24 21 -50 -6z"/>
<path d="M5425 5426 c-73 -18 -127 -45 -201 -103 -51 -40 -224 -213 -224 -224
0 -4 -13 -27 -29 -51 -39 -59 -73 -120 -116 -208 -20 -41 -40 -83 -45 -92 -18
-33 -50 -133 -50 -155 0 -12 -11 -39 -25 -59 -14 -21 -28 -49 -30 -63 -3 -14
-12 -47 -20 -72 -8 -26 -15 -58 -15 -72 0 -13 -7 -41 -15 -60 -8 -20 -15 -52
-15 -70 0 -19 -7 -54 -15 -77 -8 -23 -15 -60 -15 -82 0 -22 -7 -67 -16 -101
-18 -69 -15 -311 5 -384 16 -60 31 -121 41 -168 5 -22 15 -64 22 -92 10 -45 9
-67 -6 -150 -28 -152 -52 -224 -125 -373 -38 -78 -61 -110 -126 -176 -45 -44
-103 -95 -130 -114 -28 -19 -52 -36 -55 -40 -17 -21 -123 -75 -165 -84 -44
-10 -50 -15 -50 -36 0 -24 3 -25 55 -24 57 2 85 14 215 92 155 92 283 215 334
319 18 37 39 83 47 101 7 18 20 47 27 65 27 61 65 168 76 212 4 17 13 40 19
52 15 28 15 183 1 220 -7 15 -15 46 -19 68 -4 22 -13 54 -18 70 -43 122 -57
375 -27 485 8 30 15 69 15 85 0 27 10 78 42 215 6 25 14 63 18 85 4 22 13 56
20 75 26 77 32 96 40 130 4 19 18 60 30 90 12 30 24 65 27 77 3 12 11 28 19
34 8 6 14 16 14 22 0 13 33 79 61 122 10 17 22 37 26 45 12 27 125 174 167
218 124 131 246 178 343 131 49 -24 138 -106 154 -143 5 -12 13 -28 18 -36 33
-57 41 -95 41 -198 -1 -74 -5 -115 -15 -132 -8 -14 -14 -33 -15 -42 -1 -53
-183 -275 -246 -298 -39 -15 -83 -3 -131 37 -40 32 -43 38 -43 83 0 54 21 97
61 128 30 23 113 52 150 52 32 0 70 41 62 68 -6 24 -58 52 -96 52 -100 0 -225
-129 -277 -285 -16 -50 -15 -80 4 -125 16 -37 69 -100 84 -100 5 0 15 -7 22
-15 9 -11 32 -15 79 -15 55 0 77 6 130 32 62 32 201 155 201 179 0 6 11 25 24
42 14 18 29 43 35 57 6 14 15 32 20 40 20 34 41 100 57 185 17 86 17 94 0 170
-20 90 -40 143 -73 197 -25 41 -131 148 -146 148 -6 0 -18 6 -26 13 -14 12
-111 39 -129 36 -4 -1 -29 -7 -57 -13z"/>
<path d="M3759 4813 c-46 -57 -129 -272 -133 -342 -1 -40 24 -62 51 -45 20 13
63 90 63 114 0 9 7 25 15 36 8 10 15 29 15 42 0 13 7 36 14 51 8 15 16 57 18
92 2 51 0 64 -13 67 -8 1 -22 -5 -30 -15z"/>
<path d="M6187 3782 c-26 -26 -47 -51 -47 -54 0 -4 -13 -27 -30 -51 -25 -37
-30 -55 -30 -104 0 -40 6 -67 17 -83 12 -17 18 -44 18 -85 -1 -57 -4 -65 -58
-143 -32 -46 -62 -93 -67 -105 -6 -12 -14 -29 -18 -37 -27 -48 -42 -84 -42
-100 0 -9 -8 -35 -17 -56 -25 -59 -26 -368 0 -407 9 -14 17 -35 17 -45 0 -11
7 -25 15 -32 8 -7 15 -17 15 -22 0 -18 60 -87 96 -109 l35 -21 25 23 c16 15
24 33 24 54 0 44 -35 119 -64 138 -27 18 -32 43 -42 217 -6 107 9 224 38 300
16 43 62 106 131 180 56 60 87 116 87 156 0 38 -26 97 -73 162 -21 29 -26 46
-22 65 12 45 99 44 175 -1 84 -51 100 -55 175 -41 39 7 81 18 95 24 84 42 285
64 425 49 135 -15 197 -38 292 -107 44 -33 163 -173 163 -193 0 -3 13 -23 28
-43 15 -20 36 -53 47 -73 18 -36 18 -38 0 -95 -34 -103 -115 -207 -184 -235
-110 -46 -196 -101 -257 -167 -30 -32 -30 -49 -1 -62 24 -11 55 -1 117 37 32
20 133 76 189 106 24 12 71 49 105 80 33 32 66 58 72 58 19 0 70 -62 89 -110
4 -8 11 -22 16 -30 5 -8 12 -22 15 -30 3 -8 13 -31 21 -50 40 -91 62 -153 73
-205 5 -22 13 -51 18 -65 27 -71 22 -369 -8 -450 -51 -139 -86 -199 -170 -290
-49 -53 -64 -90 -37 -90 16 0 47 -31 47 -47 0 -6 -14 -16 -31 -24 -39 -16
-100 -2 -162 38 -68 44 -134 63 -217 63 -41 0 -91 5 -110 10 -19 6 -62 15 -95
20 -77 11 -142 28 -178 46 -16 8 -37 14 -47 14 -10 0 -31 6 -47 14 -15 8 -46
23 -68 33 -78 36 -193 133 -298 252 -110 124 -157 189 -157 216 0 8 -12 21
-26 27 -23 11 -29 10 -45 -11 -11 -13 -19 -32 -19 -43 0 -24 27 -111 46 -151
8 -16 14 -33 14 -39 0 -20 92 -129 163 -192 71 -64 162 -136 170 -136 3 0 29
-16 58 -36 84 -56 226 -114 280 -114 15 0 46 -7 69 -15 23 -8 63 -15 89 -15
25 0 73 -7 106 -15 33 -8 76 -14 95 -15 19 0 52 -6 75 -14 22 -8 52 -17 66
-20 14 -3 38 -18 53 -33 26 -26 34 -28 105 -27 63 1 84 6 123 28 26 15 61 45
78 66 29 37 31 43 28 119 -3 74 -1 82 20 97 31 22 62 55 73 79 5 11 13 27 18
35 48 85 72 193 90 410 14 162 -11 349 -65 475 -55 129 -151 310 -195 366 -24
31 -29 46 -29 93 0 49 -14 100 -41 146 -5 8 -14 26 -20 40 -27 63 -171 231
-255 297 -56 44 -156 93 -191 93 -15 1 -55 7 -88 15 -33 8 -94 15 -135 15 -87
0 -242 -25 -283 -46 -16 -8 -34 -14 -40 -14 -6 0 -19 -8 -29 -17 -13 -11 -37
-17 -71 -17 -44 -1 -60 4 -92 29 -48 36 -73 52 -102 64 -11 6 -24 15 -28 20
-3 6 -32 11 -63 11 -56 0 -59 -2 -105 -48z"/>
<path d="M2625 3808 c-46 -12 -113 -36 -135 -49 -8 -5 -22 -12 -30 -15 -8 -3
-22 -10 -30 -15 -8 -5 -22 -12 -30 -15 -8 -3 -28 -13 -45 -22 -39 -22 -155
-23 -180 -2 -21 18 -89 38 -165 50 -30 4 -69 13 -87 20 -41 15 -237 8 -283
-10 -48 -18 -102 -41 -120 -51 -8 -5 -37 -20 -65 -34 -63 -32 -80 -43 -130
-80 -51 -39 -135 -126 -135 -141 0 -6 -6 -17 -14 -23 -8 -6 -17 -37 -21 -69
-10 -88 -24 -117 -64 -138 -20 -10 -52 -34 -72 -54 -37 -37 -121 -144 -132
-170 -4 -8 -16 -28 -27 -45 -11 -16 -24 -39 -30 -50 -6 -11 -19 -33 -29 -50
-11 -16 -36 -64 -56 -105 -20 -41 -42 -88 -50 -103 -8 -16 -15 -37 -15 -47 0
-9 -7 -35 -17 -56 -22 -54 -22 -413 1 -522 22 -100 22 -325 1 -342 -10 -9 -15
-32 -15 -74 0 -56 3 -65 31 -94 34 -35 108 -72 144 -72 22 0 104 32 118 46 3
4 30 15 59 25 44 15 87 18 253 19 110 0 218 5 240 10 22 6 69 14 105 19 111
16 241 52 380 106 60 24 178 81 215 105 17 11 39 24 50 29 37 17 180 148 223
204 46 61 63 127 43 165 -21 40 -63 8 -215 -161 -72 -80 -196 -177 -226 -177
-7 0 -24 -6 -38 -14 -40 -20 -92 -37 -137 -45 -22 -4 -50 -13 -62 -19 -12 -7
-32 -12 -44 -12 -11 0 -42 -6 -68 -14 -69 -22 -139 -38 -201 -47 -231 -33
-217 -32 -328 -14 -103 17 -108 17 -162 -1 -30 -10 -73 -30 -95 -44 -61 -39
-143 -64 -161 -49 -21 18 -17 51 12 90 31 41 64 113 64 141 0 11 -11 41 -24
67 -15 28 -27 71 -30 111 -3 36 -11 117 -17 180 -6 63 -8 140 -5 170 26 238
39 296 88 395 37 73 85 147 104 158 9 5 14 27 14 62 0 49 2 55 20 55 30 0 75
37 121 97 42 56 63 66 72 34 2 -11 15 -21 28 -23 20 -2 24 -10 27 -45 2 -23 9
-46 15 -51 7 -6 48 -20 91 -31 43 -11 94 -32 112 -46 39 -30 39 -30 65 -6 15
14 21 33 22 74 2 69 -15 86 -89 87 -28 0 -59 6 -70 15 -10 8 -26 15 -36 15 -9
0 -37 23 -62 51 -54 60 -60 101 -24 171 24 48 148 177 190 199 125 65 168 80
268 91 147 15 286 -2 372 -48 14 -8 34 -14 45 -14 10 0 27 -7 37 -15 13 -10
44 -15 89 -15 61 0 73 3 106 29 20 16 65 43 101 61 36 17 78 38 95 47 16 8 51
17 77 20 44 5 48 4 48 -15 0 -13 -18 -36 -47 -59 -26 -21 -57 -46 -70 -57 -12
-10 -32 -24 -44 -30 -47 -24 -45 -39 11 -92 73 -68 139 -157 178 -239 64 -135
76 -191 76 -365 1 -148 -4 -184 -35 -240 -4 -8 -18 -33 -29 -54 -12 -22 -42
-66 -66 -98 -66 -85 -64 -138 4 -138 32 0 45 7 83 48 85 88 112 130 105 162
-4 24 1 36 28 66 32 35 35 44 41 125 9 110 -3 311 -21 364 -8 22 -14 52 -14
66 0 14 -7 34 -15 45 -8 10 -15 29 -15 40 0 12 -7 27 -15 34 -8 7 -15 20 -15
30 0 10 -7 23 -15 30 -8 7 -15 17 -15 22 0 15 -42 70 -87 115 -51 50 -57 83
-15 83 28 0 67 22 89 50 7 8 13 45 13 83 0 82 -19 122 -69 143 -37 16 -58 16
-116 2z"/>
<path d="M5079 3248 c-25 -39 -67 -152 -79 -211 -4 -21 -13 -44 -19 -50 -6 -6
-11 -20 -11 -32 0 -12 -7 -30 -15 -41 -8 -10 -15 -25 -15 -33 0 -29 -76 -171
-125 -235 -52 -69 -188 -196 -210 -196 -4 0 -24 -12 -44 -27 -20 -16 -45 -33
-56 -40 -25 -15 -277 -139 -325 -160 -19 -9 -43 -20 -52 -24 -45 -23 -110 -42
-180 -54 -63 -11 -90 -11 -160 0 -98 16 -158 31 -213 54 -56 23 -232 22 -268
-2 -15 -9 -33 -17 -41 -17 -9 0 -32 -7 -53 -16 -21 -9 -53 -22 -71 -30 -79
-33 -103 -44 -197 -90 -55 -26 -132 -70 -172 -97 -77 -52 -202 -170 -230 -217
-9 -17 -21 -30 -25 -30 -4 0 -8 -7 -8 -15 0 -8 -3 -15 -7 -15 -10 0 -37 -45
-80 -135 -19 -38 -39 -77 -44 -85 -5 -8 -12 -22 -15 -30 -3 -8 -12 -28 -20
-43 -7 -16 -14 -36 -14 -45 0 -9 -7 -26 -15 -36 -8 -11 -15 -29 -15 -40 0 -12
-7 -30 -15 -40 -8 -11 -15 -28 -15 -38 0 -37 -65 -141 -120 -192 -56 -51 -178
-137 -223 -156 -12 -6 -29 -14 -37 -19 -73 -42 -87 -45 -175 -46 -95 0 -127
12 -167 59 -25 29 -22 51 8 75 32 25 84 27 145 6 41 -15 44 -14 63 5 18 18 19
23 7 57 -19 53 -47 72 -104 73 -91 0 -194 -73 -217 -154 -22 -81 27 -168 123
-218 57 -29 184 -31 247 -4 67 28 181 85 215 107 17 10 37 22 45 26 31 14 169
124 218 173 35 35 55 66 63 93 20 77 41 137 50 143 5 3 9 13 9 23 0 10 7 24
15 31 8 7 15 21 15 30 0 10 6 31 14 47 8 15 24 49 35 75 21 46 49 66 72 52 7
-4 20 3 30 17 18 25 11 55 -17 72 -12 7 -11 13 2 39 17 33 71 113 101 149 25
29 121 103 169 129 21 12 59 32 83 46 24 13 50 24 56 24 7 0 18 7 25 15 7 8
20 15 29 15 10 0 44 14 76 30 32 17 64 30 71 30 7 0 25 6 41 14 103 50 106 51
194 51 54 -1 101 -7 125 -17 75 -30 109 -40 159 -48 28 -4 72 -14 98 -20 41
-11 57 -10 110 5 65 18 119 37 177 62 19 8 49 21 65 27 39 17 166 75 185 86 8
5 51 27 95 50 44 23 94 50 110 61 17 10 39 23 50 29 42 21 170 115 245 179 19
17 40 31 46 31 6 0 17 7 24 15 8 10 30 15 61 15 47 0 49 1 49 29 0 21 -6 30
-21 34 -20 5 -21 10 -14 54 4 26 13 59 19 73 27 52 49 108 86 210 7 19 16 53
20 75 4 22 13 67 20 100 11 51 11 65 -1 90 -18 38 -42 43 -60 13z"/>
<path d="M1601 2842 l-21 -17 19 -54 c14 -41 34 -69 78 -110 72 -69 112 -91
167 -91 67 0 86 33 42 73 -13 12 -43 40 -67 62 -24 22 -66 58 -94 79 -27 22
-52 43 -55 46 -3 4 -15 12 -27 18 -17 9 -25 8 -42 -6z"/>
<path d="M6783 2453 c-12 -2 -27 -11 -33 -19 -7 -8 -20 -14 -30 -14 -10 0 -23
-7 -30 -15 -7 -8 -20 -15 -29 -15 -9 0 -25 -7 -35 -15 -12 -9 -43 -15 -80 -15
-45 -1 -67 -6 -83 -19 -32 -27 -29 -57 7 -76 26 -13 40 -14 97 -4 38 7 80 18
95 26 15 7 36 13 46 13 11 0 25 7 32 15 7 8 20 15 29 15 9 0 29 11 44 25 31
30 38 89 11 99 -9 3 -16 5 -17 5 -1 -1 -12 -4 -24 -6z"/>
<path d="M2114 2394 c-16 -65 38 -128 93 -108 23 8 29 16 31 46 3 31 -2 40
-31 62 -45 35 -84 35 -93 0z"/>
<path d="M3280 1800 c-85 -23 -153 -62 -209 -119 -111 -112 -164 -206 -186
-329 -9 -48 -23 -100 -31 -115 -8 -16 -14 -34 -14 -40 0 -7 -18 -46 -40 -87
-22 -41 -44 -86 -50 -100 -6 -14 -22 -39 -36 -57 -13 -17 -24 -35 -24 -38 0
-17 -95 -127 -137 -158 -69 -51 -95 -81 -91 -108 10 -71 87 -37 216 96 48 49
103 115 123 145 65 99 142 267 156 340 34 191 71 267 179 376 67 68 120 92
228 103 93 9 122 24 110 55 -7 19 -84 57 -112 55 -9 -1 -46 -9 -82 -19z"/>
</g>
</svg>
