<?xml version="1.0" standalone="no"?>
<!DOCTYPE svg PUBLIC "-//W3C//DTD SVG 20010904//EN"
 "http://www.w3.org/TR/2001/REC-SVG-20010904/DTD/svg10.dtd">
<svg version="1.0" xmlns="http://www.w3.org/2000/svg"
 width="900.000000pt" height="459.000000pt" viewBox="0 0 900.000000 459.000000"
 preserveAspectRatio="xMidYMid meet">
<metadata>
Created by potrace 1.10, written by Peter Selinger 2001-2011
</metadata>
<g transform="translate(0.000000,459.000000) scale(0.100000,-0.100000)"
fill="#000000" stroke="none">
<path d="M1190 3411 c-58 -4 -115 -12 -127 -19 -12 -6 -33 -12 -46 -12 -14 0
-30 -7 -37 -15 -7 -8 -20 -15 -30 -15 -10 0 -23 -7 -30 -15 -7 -8 -17 -15 -22
-15 -17 0 -172 -123 -239 -189 -75 -74 -204 -243 -238 -311 -12 -25 -26 -52
-30 -60 -28 -52 -61 -144 -71 -195 -4 -22 -13 -60 -20 -85 -20 -68 -17 -636 4
-745 9 -44 16 -93 16 -110 0 -58 68 -237 121 -320 10 -16 22 -37 26 -45 10
-22 91 -130 127 -168 93 -100 285 -206 421 -232 22 -4 60 -12 85 -18 25 -6
111 -17 191 -23 210 -17 428 6 589 62 57 20 166 66 190 80 8 5 22 12 30 15 8
3 22 10 30 15 8 5 22 12 30 16 55 23 193 128 269 204 68 69 201 237 201 255 0
3 12 23 28 43 32 43 44 63 72 119 12 23 27 42 33 41 7 0 29 -23 49 -51 66 -91
195 -215 232 -222 42 -8 150 8 200 29 43 18 150 119 166 157 6 12 19 37 30 53
11 17 24 39 30 50 38 71 98 151 129 172 14 10 49 25 76 35 44 15 97 17 460 18
226 1 446 6 490 11 44 5 175 13 290 19 116 5 265 14 333 20 68 5 160 10 205
10 45 0 125 7 177 15 52 8 131 15 175 15 44 0 154 7 245 15 91 8 215 15 275
15 100 0 150 4 344 29 84 10 103 5 145 -35 30 -29 45 -55 88 -150 20 -44 57
-54 195 -54 120 -1 347 17 528 41 44 6 125 15 180 19 55 5 116 14 135 19 19 6
53 11 76 11 70 0 74 10 74 211 0 117 -5 194 -15 234 -8 33 -15 76 -15 95 0 19
-7 46 -15 60 -8 14 -14 37 -15 51 0 14 -7 34 -15 45 -8 10 -15 28 -15 40 0 12
-14 40 -30 62 l-30 42 -157 0 c-91 0 -192 -6 -242 -15 -154 -26 -283 -37 -496
-42 -185 -5 -214 -8 -242 -25 -37 -22 -40 -33 -17 -82 23 -48 13 -70 -29 -62
-17 4 -86 11 -152 16 -66 5 -150 14 -187 20 -37 5 -98 10 -136 10 -38 0 -91 7
-118 15 -42 13 -210 15 -1204 15 -972 0 -1169 2 -1245 15 -49 8 -122 15 -162
15 l-72 0 -21 46 c-11 26 -20 55 -20 65 0 18 -15 58 -52 134 -57 121 -135 205
-240 264 -67 37 -121 40 -171 11 -43 -26 -110 -118 -160 -220 -26 -56 -48 -53
-122 16 -33 30 -71 65 -85 78 -29 26 -191 132 -223 146 -12 6 -29 14 -37 19
-8 5 -46 23 -85 41 -38 17 -83 38 -98 46 -16 8 -36 14 -46 14 -9 0 -26 7 -37
15 -10 8 -27 15 -37 15 -11 0 -33 6 -50 14 -46 19 -113 36 -184 46 -35 5 -80
13 -100 19 -50 12 -389 20 -523 12z m494 -107 c50 -8 109 -20 131 -25 22 -6
56 -14 75 -19 46 -11 98 -29 133 -46 16 -8 35 -14 42 -14 7 0 26 -6 42 -14 15
-8 46 -22 68 -32 22 -9 47 -21 55 -25 8 -4 34 -18 58 -30 66 -33 203 -137 308
-234 156 -144 197 -175 233 -175 36 0 70 31 71 64 0 22 25 112 49 174 9 23 32
61 52 84 l36 43 37 -20 c65 -35 121 -91 151 -151 40 -80 64 -176 64 -255 1
-41 6 -70 14 -77 6 -5 50 -12 97 -16 47 -3 110 -10 140 -15 30 -5 168 -10 305
-10 138 -1 448 -8 690 -16 242 -8 577 -15 745 -15 168 -1 384 -5 480 -10 96
-5 399 -14 674 -20 392 -8 501 -8 513 2 10 8 13 23 10 44 -11 63 47 82 318
104 66 5 172 14 235 19 164 15 254 14 297 -4 38 -16 73 -47 73 -64 0 -5 6 -22
14 -38 25 -49 46 -194 46 -309 0 -96 -3 -115 -20 -137 -25 -31 -92 -67 -128
-67 -15 -1 -54 -7 -87 -15 -33 -8 -96 -15 -140 -15 -44 0 -145 -7 -225 -15
-80 -8 -187 -15 -237 -15 l-93 0 0 33 c0 17 -7 57 -15 87 -8 30 -15 74 -15 97
0 23 -5 45 -10 48 -6 4 -43 1 -83 -5 -39 -6 -162 -15 -272 -21 -110 -5 -231
-13 -270 -19 -38 -5 -101 -10 -140 -10 -38 0 -113 -7 -165 -15 -52 -8 -124
-15 -160 -15 -36 0 -105 -7 -155 -15 -49 -8 -126 -15 -170 -15 -44 0 -136 -7
-205 -15 -69 -8 -172 -15 -230 -15 -58 0 -181 -7 -275 -16 -129 -12 -309 -15
-745 -16 -516 0 -577 -2 -594 -17 -17 -15 -84 -109 -99 -141 -4 -8 -29 -54
-55 -102 -104 -191 -161 -251 -236 -251 -63 0 -83 17 -248 204 -31 36 -72 73
-91 84 -34 18 -35 18 -65 -4 -37 -26 -103 -112 -142 -186 -6 -11 -19 -33 -30
-50 -11 -16 -25 -40 -31 -52 -7 -13 -16 -23 -21 -23 -4 0 -8 -5 -8 -11 0 -12
-70 -106 -140 -187 -40 -48 -161 -147 -200 -165 -8 -4 -28 -16 -45 -26 -30
-20 -90 -50 -155 -78 -19 -9 -48 -22 -63 -29 -16 -8 -37 -14 -47 -14 -11 0
-34 -6 -52 -14 -96 -41 -518 -61 -643 -31 -33 8 -72 14 -87 15 -15 0 -44 7
-65 16 -21 9 -51 22 -68 29 -16 7 -37 16 -45 19 -84 36 -233 175 -283 264 -77
137 -135 279 -147 362 -5 30 -13 89 -20 130 -15 105 -16 636 0 675 6 17 15 50
20 75 8 46 22 91 45 145 39 90 60 133 81 162 13 17 24 35 24 38 0 13 93 127
153 188 66 67 144 133 180 153 80 44 157 75 242 97 85 21 397 22 519 1z"/>
<path d="M2050 2703 c-19 -8 -42 -19 -50 -24 -8 -5 -24 -13 -35 -18 -33 -15
-83 -82 -120 -161 -51 -108 -70 -282 -40 -373 36 -108 57 -140 140 -220 79
-75 173 -126 303 -163 61 -17 65 -17 119 1 54 19 122 79 144 130 5 11 13 27
18 35 12 20 35 84 51 140 7 25 15 117 17 206 4 159 4 161 -24 220 -49 106
-156 185 -304 228 -70 20 -173 20 -219 -1z m217 -117 c15 -8 35 -18 43 -21 8
-3 29 -14 45 -25 17 -11 35 -22 42 -26 7 -3 28 -30 48 -59 31 -47 35 -61 35
-118 0 -45 -5 -68 -15 -77 -8 -7 -15 -18 -15 -25 0 -7 -7 -18 -15 -25 -23 -19
-18 -48 15 -90 18 -22 30 -50 30 -66 0 -59 -153 -204 -214 -204 -14 0 -40 6
-58 14 -18 8 -40 17 -48 21 -66 26 -171 115 -211 176 -47 73 -63 166 -44 262
7 38 18 74 24 80 6 6 11 18 11 26 0 25 74 104 116 125 22 10 50 24 64 32 33
18 111 18 147 0z"/>
</g>
</svg>
