<?xml version="1.0" standalone="no"?>
<!DOCTYPE svg PUBLIC "-//W3C//DTD SVG 20010904//EN"
 "http://www.w3.org/TR/2001/REC-SVG-20010904/DTD/svg10.dtd">
<svg version="1.0" xmlns="http://www.w3.org/2000/svg"
 width="300.000000pt" height="132.000000pt" viewBox="0 0 300.000000 132.000000"
 preserveAspectRatio="xMidYMid meet">
<metadata>
Created by potrace 1.10, written by Peter Selinger 2001-2011
</metadata>
<g transform="translate(0.000000,132.000000) scale(0.050000,-0.050000)"
fill="#000000" stroke="none">
<path d="M4580 2479 c-203 -9 -482 -26 -620 -37 -137 -12 -1015 -31 -1950 -43
-1251 -17 -1707 -29 -1725 -46 -43 -41 -58 -196 -43 -433 8 -126 17 -414 18
-640 2 -225 9 -485 17 -577 13 -159 12 -168 -29 -184 -82 -31 -68 -139 18
-139 10 0 46 -23 80 -52 66 -55 76 -56 300 -9 72 15 164 12 360 -13 174 -21
454 -34 824 -37 308 -3 916 -10 1350 -16 1406 -21 2388 -23 2485 -7 l94 16 1
84 c1 46 1 120 0 164 -1 44 -4 395 -6 780 -4 592 -10 723 -41 852 -36 155
-101 288 -130 270 -9 -6 -37 4 -63 22 -78 55 -385 70 -940 45z m775 -101 c31
-12 45 -34 46 -73 4 -157 40 -517 68 -685 17 -104 36 -347 42 -540 6 -192 19
-384 28 -425 11 -51 10 -80 -6 -89 -12 -8 -662 -16 -1443 -17 -781 -2 -1640
-13 -1910 -25 -1055 -48 -1820 -50 -1820 -4 0 31 18 42 81 52 89 15 97 54 13
64 -85 10 -102 110 -103 604 -1 237 -9 552 -18 700 -24 390 -126 349 880 355
1031 7 2380 37 2927 65 226 12 554 29 730 38 317 16 397 13 485 -20z m221
-108 c87 -190 147 -1594 79 -1843 l-22 -82 -122 -11 c-328 -31 -4480 26 -4542
62 -21 13 -30 23 -19 23 11 0 322 5 690 10 369 5 1120 18 1670 30 675 15 1182
16 1560 2 555 -19 688 -11 742 43 34 33 3 799 -46 1116 -63 416 -57 798 10
650z m-5038 -1862 c4 -4 -17 -17 -46 -31 -47 -21 -59 -19 -98 20 l-44 45 90
-14 c50 -7 93 -16 98 -20z"/>
<path d="M3150 2168 c-176 -14 -423 -23 -550 -19 -126 4 -419 -6 -650 -22
-777 -54 -1005 -57 -1052 -15 -33 30 -47 32 -79 12 -22 -14 -108 -24 -199 -24
-195 0 -196 -3 -150 -215 74 -337 88 -464 89 -809 1 -401 17 -452 122 -395 55
29 331 -8 379 -51 34 -31 42 -31 94 -3 83 47 298 73 341 42 27 -20 44 -20 85
0 134 68 1635 104 1725 42 40 -28 47 -28 67 -1 25 34 237 42 287 11 19 -12 39
-11 56 3 17 14 112 18 275 12 295 -12 309 -4 251 126 -23 52 -48 179 -61 308
-12 121 -31 253 -41 294 -11 40 -34 175 -51 300 -63 461 -42 437 -374 433
-134 -1 -388 -14 -564 -29z m406 -278 c-3 -3 -57 -9 -120 -14 l-114 -9 -12 81
c-7 45 -17 97 -22 116 -9 29 8 35 116 40 l126 6 16 -107 c9 -59 14 -110 10
-113z m301 218 c53 -11 66 -26 89 -105 36 -123 36 -123 -147 -123 l-159 0 0
88 c0 49 -5 103 -12 120 -13 35 103 45 229 20z m-647 -143 c15 -97 17 -96
-155 -114 l-115 -11 0 108 0 109 105 18 c126 22 146 8 165 -110z m-724 19 c6
-52 14 -108 18 -125 5 -23 -20 -29 -124 -29 l-130 0 -12 110 c-15 141 -16 140
120 140 l116 0 12 -96z m364 -19 c16 -131 17 -130 -119 -138 -127 -6 -126 -7
-143 137 l-13 109 131 0 130 0 14 -108z m-722 60 c55 -189 51 -195 -143 -213
l-125 -11 0 118 0 119 75 7 c163 18 182 16 193 -20z m-396 0 c12 -8 27 -62 34
-120 l12 -105 -74 0 c-41 0 -121 6 -179 13 l-105 13 0 86 c0 97 7 101 180 114
50 4 95 8 100 10 6 2 20 -3 32 -11z m-912 -100 c0 -41 6 -95 13 -120 11 -43 7
-45 -119 -45 l-131 0 -21 102 c-29 132 -23 138 129 138 l129 0 0 -75z m509
-17 c17 -111 39 -96 -186 -126 -219 -30 -250 -2 -225 203 1 8 91 15 200 15
l197 0 14 -92z m2231 -239 l0 -131 -115 6 -115 6 -6 125 -6 125 121 0 121 0 0
-131z m438 30 c36 -167 44 -159 -158 -159 l-180 0 0 85 c0 47 -6 105 -13 130
-11 44 -8 45 159 45 l171 0 21 -101z m-771 -23 c16 -134 13 -136 -148 -136
l-139 0 0 115 0 115 137 4 138 5 12 -103z m-1067 -47 l0 -109 -150 0 -150 0 0
99 0 98 115 13 c63 7 124 16 135 19 40 11 50 -13 50 -120z m685 101 c8 -11 15
-58 15 -105 l0 -85 -100 0 c-55 0 -107 -2 -115 -5 -14 -5 -43 200 -31 212 15
16 218 0 231 -17z m-1477 -125 l13 -105 -138 0 c-76 0 -165 -5 -198 -12 -57
-11 -60 -8 -83 83 -29 113 -51 96 178 132 220 34 211 38 228 -98z m317 115
l95 0 0 -100 0 -100 -157 0 -158 0 -12 75 c-24 145 -21 152 62 138 41 -7 118
-13 170 -13z m846 -71 c17 -110 27 -102 -134 -114 -148 -11 -156 -4 -157 140
l0 65 139 0 139 0 13 -91z m-1661 -14 c6 -25 13 -72 16 -105 4 -63 7 -62 -126
-46 -39 5 -51 -4 -56 -38 -8 -52 61 -78 156 -59 63 13 65 9 90 -135 l13 -77
-101 9 c-78 8 -108 2 -132 -24 -72 -79 -25 -110 122 -80 61 13 114 20 118 16
10 -9 70 -298 70 -333 0 -34 -127 -15 -195 29 -33 21 -56 24 -84 9 -114 -61
-118 -50 -120 314 -1 184 -7 379 -14 432 -15 116 2 132 138 133 81 0 96 -6
105 -45z m2010 -295 l0 -96 -291 -14 c-160 -8 -294 -12 -297 -7 -4 4 -11 57
-17 117 l-11 110 138 2 139 1 -6 -71 c-4 -65 0 -72 45 -72 45 0 50 8 48 74
l-2 74 102 6 c132 8 152 -9 152 -124z m365 35 c13 -135 13 -135 -123 -135
-181 0 -252 210 -77 225 206 19 189 26 200 -90z m311 76 c3 -3 10 -52 15 -109
l8 -102 -118 0 -117 0 -8 105 c-5 58 -5 113 0 122 8 15 203 1 220 -16z m491
-27 c5 -19 15 -68 22 -109 l13 -75 -118 0 c-65 0 -160 -6 -211 -13 l-93 -12 0
127 0 128 189 -6 c157 -6 191 -12 198 -40z m-2267 -19 c0 -30 6 -87 12 -127
l12 -72 -147 -11 c-81 -6 -148 -10 -150 -8 -1 2 -9 59 -17 127 l-14 124 137 7
c75 4 144 9 152 11 8 2 15 -21 15 -51z m-374 -110 l11 -115 -186 0 -186 0 -12
78 c-7 43 -18 91 -24 107 -11 28 342 81 373 55 7 -5 18 -62 24 -125z m774 25
l0 -120 -137 0 -138 0 -11 86 c-7 47 -18 101 -25 120 -12 30 4 34 149 34 l162
0 0 -120z m1077 -328 l3 -169 -591 -2 c-529 -2 -958 -23 -1052 -52 -37 -12
-42 -1 -77 177 -33 164 -25 174 128 174 102 0 134 -7 149 -35 18 -32 22 -32
56 -1 45 40 998 88 1041 52 14 -11 36 -12 50 -3 25 16 254 43 278 33 7 -2 13
-81 15 -174z m330 133 c6 -19 17 -96 24 -170 l14 -135 -123 0 c-140 0 -134 -8
-150 195 l-12 145 119 0 c95 0 120 -7 128 -35z m510 -114 c13 -71 29 -143 36
-160 10 -27 -16 -31 -180 -31 -213 0 -216 1 -242 150 -7 44 -19 100 -25 125
-10 44 -8 45 188 45 l199 0 24 -129z m-2651 -79 c18 -188 37 -167 -156 -175
l-159 -7 -15 120 c-8 66 -24 139 -34 163 -28 63 -11 69 177 63 l171 -6 16
-158z"/>
<path d="M5170 2159 c-122 -37 -832 -70 -885 -42 -65 35 -99 -20 -68 -107 14
-37 19 -89 12 -115 -7 -31 -1 -57 20 -74 39 -33 40 -79 1 -94 -16 -6 -30 -32
-30 -58 l0 -47 345 10 c190 5 435 14 545 20 l200 11 -2 241 c-2 182 -9 244
-30 258 -32 20 -29 20 -108 -3z m-214 -171 l6 -62 -136 -11 c-159 -13 -165
-10 -125 61 22 40 52 57 110 66 123 20 138 14 145 -54z m220 48 c59 -59 16
-116 -88 -116 -47 0 -72 89 -35 127 22 21 97 15 123 -11z m-576 -68 c0 -45 -7
-48 -108 -48 -228 0 -257 88 -32 93 136 4 140 2 140 -45z m0 -148 c-15 -9 -19
-32 -10 -59 13 -41 9 -43 -103 -37 -110 6 -117 9 -123 60 -6 53 -3 54 110 60
126 7 164 -1 126 -24z m575 20 c46 0 29 -94 -20 -107 -83 -23 -95 -15 -95 59
0 66 4 71 45 61 25 -7 56 -13 70 -13z m-198 -51 c13 -28 23 -55 23 -60 0 -5
-72 -9 -160 -9 l-160 0 0 60 0 60 137 0 c127 0 138 -4 160 -51z"/>
<path d="M4612 1423 c-6 -10 -2 -48 9 -85 49 -171 30 -199 -121 -178 -159 22
-171 6 -148 -213 l18 -176 280 -5 c154 -2 372 -7 485 -10 l206 -6 -13 180
c-16 225 -27 238 -197 234 -148 -4 -171 16 -171 151 0 42 -11 88 -24 101 -28
28 -308 33 -324 7z m237 -108 c40 -129 30 -175 -38 -175 -74 0 -103 55 -79
150 13 54 102 73 117 25z m-231 -263 c40 -48 6 -192 -46 -192 -118 0 -196 185
-87 206 86 16 110 14 133 -14z m302 -72 c7 -130 3 -140 -55 -140 -121 1 -137
15 -139 120 l-1 98 82 6 c103 7 109 3 113 -84z m248 74 c22 -16 40 -63 47
-120 l10 -94 -102 0 -103 0 0 107 c0 138 53 176 148 107z"/>
</g>
</svg>
