<?xml version="1.0" standalone="no"?>
<!DOCTYPE svg PUBLIC "-//W3C//DTD SVG 20010904//EN"
 "http://www.w3.org/TR/2001/REC-SVG-20010904/DTD/svg10.dtd">
<svg version="1.0" xmlns="http://www.w3.org/2000/svg"
 width="300.000000pt" height="424.000000pt" viewBox="0 0 300.000000 424.000000"
 preserveAspectRatio="xMidYMid meet">
<metadata>
Created by potrace 1.10, written by Peter Selinger 2001-2011
</metadata>
<g transform="translate(0.000000,424.000000) scale(0.050000,-0.050000)"
fill="#000000" stroke="none">
<path d="M2808 7509 c-72 -110 5 -322 186 -512 85 -89 112 -132 120 -195 18
-134 146 -161 146 -31 0 55 42 65 80 19 65 -78 172 -25 163 80 -12 136 243
515 326 483 96 -37 -126 -542 -261 -594 -96 -36 -108 -159 -16 -159 163 0 448
465 448 729 0 125 -33 171 -122 171 -179 0 -369 -200 -516 -545 -54 -127 -68
-121 -140 60 -180 451 -328 627 -414 494z"/>
<path d="M2380 6811 c-297 -154 -167 -273 315 -287 157 -5 285 -11 285 -14 0
-2 -10 -33 -22 -68 -39 -112 51 -282 184 -350 35 -17 51 -58 79 -192 20 -93
81 -297 136 -453 185 -520 266 -1168 149 -1191 -23 -4 -35 -26 -35 -66 -1 -67
-30 -74 -622 -139 -155 -18 -312 -40 -350 -51 -99 -29 -99 -29 -99 76 0 165
-185 549 -345 718 l-62 65 38 82 c72 162 26 299 -101 299 -116 0 -430 -191
-430 -262 0 -10 -20 -18 -46 -18 -164 0 -493 -591 -395 -709 47 -56 282 84
361 214 44 71 52 59 80 -116 31 -192 73 -229 177 -157 79 55 134 282 106 435
-27 140 19 174 124 92 93 -73 298 -489 325 -659 21 -126 -49 -148 -582 -181
-421 -26 -468 -41 -529 -166 -142 -294 -15 -531 319 -598 152 -30 137 20 160
-545 73 -1794 116 -2043 377 -2216 301 -199 1157 -207 2183 -21 734 133 845
298 939 1397 50 579 88 775 190 967 70 133 74 190 13 222 -33 17 -44 9 -77
-54 -22 -41 -68 -127 -104 -191 -75 -134 -91 -216 -190 -984 -137 -1059 -141
-1064 -910 -1211 -706 -135 -1475 -154 -1804 -44 -297 99 -391 512 -438 1915
-31 945 -21 909 -257 931 -165 15 -228 58 -265 180 -48 162 42 213 441 250
160 15 445 58 632 96 187 37 430 78 540 90 110 12 340 40 510 63 772 102 1791
92 2002 -21 50 -27 49 -33 -32 -203 -107 -225 -150 -293 -190 -306 -91 -29
-60 -170 37 -170 63 0 123 93 326 505 115 233 117 279 11 291 -81 10 -110 59
-44 76 195 49 122 651 -104 858 -41 37 -65 75 -57 88 14 23 172 110 179 98 2
-3 15 -29 29 -57 80 -160 228 -321 288 -315 148 15 115 127 -109 366 -117 125
-134 154 -140 231 -5 79 -14 92 -86 133 -159 90 -266 40 -321 -149 -30 -104
-55 -136 -296 -374 -264 -262 -437 -471 -513 -621 -112 -220 -66 -198 -483
-238 l-132 -13 -14 236 c-29 491 -113 917 -250 1257 -113 284 -121 374 -43
488 120 176 103 351 -38 408 -44 17 -80 45 -80 62 0 46 -132 45 -224 -2 -87
-45 -98 -36 -93 71 5 128 -18 153 -171 179 -203 36 -349 27 -452 -27z m314
-114 l56 -23 -75 -16 c-81 -19 -186 8 -165 42 17 27 114 25 184 -3z m488 -283
c-17 -45 -102 -75 -102 -35 0 32 79 104 100 91 10 -6 11 -31 2 -56z m2058
-1320 c0 -79 -194 -516 -242 -545 -77 -48 79 408 176 516 28 31 66 47 66 29z
m-3380 -60 c0 -62 -158 -185 -193 -150 -42 43 -24 86 57 136 75 46 136 52 136
14z m3071 -169 c-102 -263 -116 -443 -40 -498 82 -60 221 62 292 257 70 193
85 176 106 -116 6 -89 25 -209 43 -267 36 -124 36 -125 -53 -101 -68 18 -633
58 -749 53 -69 -3 -94 65 -45 124 15 18 49 69 74 113 109 191 416 550 372 435z
m-3440 -86 c23 -37 -170 -295 -256 -341 -61 -34 -41 41 56 207 90 154 159 200
200 134z m3967 -115 c51 -199 41 -436 -13 -332 -29 54 -65 237 -65 326 0 128
46 131 78 6z m-3805 3 c44 -107 7 -388 -42 -309 -21 34 -57 317 -45 349 21 54
54 38 87 -40z"/>
<path d="M2906 5544 c-38 -24 -210 -584 -213 -694 -3 -109 63 -151 130 -84 16
16 50 35 75 43 81 26 128 170 138 425 12 310 -18 382 -130 310z m25 -396 c-17
-88 -52 -168 -74 -168 -25 0 -21 42 15 146 38 112 79 127 59 22z"/>
</g>
</svg>
